<svg id="Layer_1" data-name="Layer 1" xmlns="http://www.w3.org/2000/svg" viewBox="0 0 570.67 143.53"><defs><style>.cls-1{fill:#f15a22;fill-rule:evenodd;}.cls-2{fill:#003974;}</style></defs><path class="cls-1" d="M68.84,105.85c-1,1.09-3.84,1.49-4.62,2.73-1.21,1.89-4,6.19-6.14,8.24-7,6.61-21.88,9.93-29.24,3.61-.48,0-.2.31.37,2.12.54,3.43,3.3,11.46,2.28,13.51.66,2.28,1.35,1.45,2.6,2.71.86.86,1.21,3.09,2.19,3.7l3.36-.24c.2.62.41,1.25.62,1.89l4.31-.31c.81.18,3.26,1.45,4,1.64l4.79-.33c3.67,1,6.86-.56,9.95-2.64,1.72-1.16,3.6-1,5.13-2.28A35.7,35.7,0,0,0,75.07,132c3.47-6.3,2.29-21.38-.85-25.11C73,105.56,71.54,105.54,68.84,105.85Zm29-4.14c-2.6,2-3.69,1.5-5.21,4.57-.16,0,.23.46.07.46,1.55,3.09,5.1,4.34,7.71,6.51.81.69,3,4.5,4.06,4.78,1.17,1.4,1.94,5.28,2.71,5.28.8,1.09-.07,3.66.71,4.66.06,4.59-.58,4.92-1.38,5.8,0,.32.44,1.16.44,1.47.22.22,2.06,1.54,2.86,1.38,2.5.08,12.76,8.08,13.57,9.62,7.36.55,6.83-1.69,11.91-3.85,1.37-.59,2.46,0,3.36-1s1-2.86,1.93-3.84C140.69,119.48,116.06,102.34,97.83,101.71Zm20-38.24c-9.12,1.38-14.69,4.28-18.14,6.67a12.44,12.44,0,0,0-3.62,3.51,5.75,5.75,0,0,0-.61,3.91,6.26,6.26,0,0,0,2.35,4.34c11.19-.83,30.63-1.53,34.41,7.88.21,1.31.5,2.09.53,2.41,3.7-.92,1-.59,6.45.27,1.26.19,4.34-.51,6.39-1A2.59,2.59,0,0,0,147,90.39,6.48,6.48,0,0,1,146.9,89a5.23,5.23,0,0,0,2.7-.46c5.17-.84,2.45-3.28,4.9-6C153,65,135,60.87,117.81,63.47ZM48.4,95.53c2-.52,5.42-.78,7.2-1.67,2.85-1.43,12.66-8.29,9.54-13.87C64.17,68.24,50,78.18,44,74.05c-6.11-.79-13-12.34-14.82-17.3a8.06,8.06,0,0,0-1.4-2.83c0-.16-.62.54-.62.37-1.78,2.08-1.47,3.9-1.75,9L23,63.11C22.8,65,22.61,66,21.75,66.9c-.17.31-.36.61-.53.92-1.52-.51-.76.22-1.38-1-5.62.28-5.21,5.93-7.79,9.15C12.16,86.48,33.06,99.5,48.4,95.53ZM89.11,38.12c.47-4-.12-9.82,3-12.56.92-4.26,7.62-3.26,6.58-6-.65-1.7-3.8-.89-5.07-.58-1,.23-10.15,3.13-13.69,3.53l-4.48-1.25c-5.77.77-9.09,5.36-12.3,9-2.69,3.05-6.33,10.53-3.44,15l-.48,2.94,6.55,9.57c2.26,1.62,2.56,2.83,5,4.42.51.76,1,1.51,1.51,2.26,2,1.31,7.86,1.33,8.85.47,9.44.88,8.41-18.24,11.41-22.25A8.1,8.1,0,0,0,89.11,38.12Z" transform="translate(-12.05 -18.54)"/><path class="cls-2" d="M167.41,72.49h11.73v6.69h.19c2.75-4.58,7.42-7.79,14.66-7.79,14.48,0,19.8,11.55,19.8,24.56s-5.32,24.83-20.07,24.83c-5.23,0-9.54-1.28-13.84-6.5h-.19v24.65H167.41ZM179.79,96c0,6.69,2.65,15.3,10.81,15.3S201,102.46,201,96c0-6.32-2.2-15-10.18-15S179.79,89.35,179.79,96Z" transform="translate(-12.05 -18.54)"/><path class="cls-2" d="M241.37,71.39c14,0,24.74,9.44,24.74,25,0,13.56-9.07,24.37-24.74,24.37S216.71,110,216.71,96.41C216.71,80.83,227.44,71.39,241.37,71.39Zm0,39.86c9.44,0,11.91-8.43,11.91-16.31,0-7.24-3.85-14-11.91-14s-11.83,7-11.83,14C229.54,102.73,232,111.25,241.37,111.25Z" transform="translate(-12.05 -18.54)"/><path class="cls-2" d="M266.75,72.49h13l10.45,34.91h.18l9.53-34.91h14.3l10.26,34.91h.19l9.8-34.91H346.2l-14.48,47.2H317.24L307,83.67h-.18l-10.08,36h-14Z" transform="translate(-12.05 -18.54)"/><path class="cls-2" d="M387.71,117c-4.49,2.47-9.62,3.75-16.22,3.75-15.58,0-24.65-9-24.65-24.46,0-13.66,7.24-24.93,21.9-24.93,17.51,0,22.46,12,22.46,28.5H358.57c.55,7.61,5.87,11.91,13.47,11.91,6,0,11.09-2.2,15.67-4.76Zm-8.24-25.57c-.37-6-3.12-11.09-10-11.09s-10.36,4.77-10.91,11.09Z" transform="translate(-12.05 -18.54)"/><path class="cls-2" d="M398.8,72.49h10.91V83.21h.18c.55-4.4,5.59-11.82,12.92-11.82a13.65,13.65,0,0,1,3.76.36V84.13a12.54,12.54,0,0,0-5.5-1c-10,0-10,12.46-10,19.24v17.33H398.8Z" transform="translate(-12.05 -18.54)"/><path class="cls-2" d="M438.66,81.47h-9.07v-9h9.07v-6.6c0-9.44,5.32-16,15-16a43.24,43.24,0,0,1,9,1l-1,10.17a9.51,9.51,0,0,0-5.31-1.65c-4.13,0-5.41,3.58-5.41,7.24v5.87h10.72v9H450.94v38.22H438.66Z" transform="translate(-12.05 -18.54)"/><path class="cls-2" d="M470.09,51h12.28v68.74H470.09Z" transform="translate(-12.05 -18.54)"/><path class="cls-2" d="M529.94,117c-4.5,2.47-9.63,3.75-16.23,3.75-15.58,0-24.65-9-24.65-24.46,0-13.66,7.24-24.93,21.9-24.93,17.51,0,22.46,12,22.46,28.5H500.79c.55,7.61,5.87,11.91,13.47,11.91,6,0,11.09-2.2,15.68-4.76Zm-8.25-25.57c-.37-6-3.12-11.09-10-11.09s-10.36,4.77-10.91,11.09Z" transform="translate(-12.05 -18.54)"/><path class="cls-2" d="M535.06,72.49h14.48l9.26,15.39,9.07-15.39h13L566.77,94.94l16,24.75H568.06l-10.54-17.6-10.63,17.6H533.42l16.22-24.75Z" transform="translate(-12.05 -18.54)"/><path class="cls-2" d="M370.74,139.35H382v2.82h-8.38v6.52h7.63v2.82h-7.63v7.36H382v2.82H370.74Z" transform="translate(-12.05 -18.54)"/><path class="cls-2" d="M386.15,139.35h5.93c6,0,10.71,4.1,10.71,11,0,7.48-4.09,11.36-10.71,11.36h-5.93ZM389,158.87h3c4.95,0,7.69-2.66,7.69-8.42,0-5.21-3.2-8.28-7.34-8.28H389Z" transform="translate(-12.05 -18.54)"/><path class="cls-2" d="M406.65,139.35h10.69v2.82h-7.81v6.52H417v2.82h-7.46v10.18h-2.88Z" transform="translate(-12.05 -18.54)"/><path class="cls-2" d="M428.49,139.35h4.92c4,0,7.8.71,7.8,6.05a5,5,0,0,1-4.14,5.09v.06c.89.38,1.32.86,1.95,2.24l3.8,8.9h-3.28l-3.08-7.75c-.89-2.17-1.84-2.17-3.37-2.17h-1.72v9.92h-2.88Zm2.88,9.6h2.44c2.74,0,4.35-1.34,4.35-3.49s-1.38-3.29-4-3.29h-2.76Z" transform="translate(-12.05 -18.54)"/><path class="cls-2" d="M457,161a10.27,10.27,0,0,1-4.64,1.06c-5.21,0-7.6-3.52-7.6-8.83,0-4.83,2.73-8.26,6.88-8.26,4.89,0,6.48,4,6.48,9.22H447.61c0,3.23,2.27,5.44,4.84,5.44A8.22,8.22,0,0,0,457,158Zm-1.76-9c0-2.5-1.33-4.55-3.66-4.55-2.65,0-3.74,2.44-3.94,4.55Z" transform="translate(-12.05 -18.54)"/><path class="cls-2" d="M461.43,145.37h2.62V148h.06a5.21,5.21,0,0,1,4.81-3c3.8,0,5.5,2.63,5.5,7v9.7h-2.71v-8.45c0-3.81-.75-5.67-3.11-5.83-3.08,0-4.46,2.76-4.46,6.72v7.56h-2.71Z" transform="translate(-12.05 -18.54)"/><path class="cls-2" d="M490,161a10.27,10.27,0,0,1-4.64,1.06c-5.21,0-7.6-3.52-7.6-8.83,0-4.83,2.74-8.26,6.88-8.26,4.9,0,6.48,4,6.48,9.22H480.64c0,3.23,2.28,5.44,4.84,5.44A8.19,8.19,0,0,0,490,158Zm-1.76-9c0-2.5-1.32-4.55-3.65-4.55-2.65,0-3.75,2.44-3.95,4.55Z" transform="translate(-12.05 -18.54)"/><path class="cls-2" d="M511.08,161.69h-3.14l-3.8-13.7h-.06l-3.71,13.7h-3.14l-4.72-16.32h3l3.37,13.5h.06l3.74-13.5h3.2l3.69,13.5h.05l3.57-13.5h2.65Z" transform="translate(-12.05 -18.54)"/><path class="cls-2" d="M518.86,146.52A8.65,8.65,0,0,1,523.7,145c4.2,0,5.9,2.31,5.9,6.75v6.76a31.63,31.63,0,0,0,.11,3.2h-2.53v-2.12h-.06a5.29,5.29,0,0,1-4.55,2.5c-3.16,0-5.38-1.54-5.38-5.09,0-4.09,4-5.37,6.82-5.37,1.07,0,1.82,0,2.88.06,0-2.82-.92-4.26-3.63-4.26a6.48,6.48,0,0,0-4.26,1.67Zm8,7.39c-.57,0-1.15-.06-1.72-.06-1.47,0-5.1.25-5.1,3.13a2.7,2.7,0,0,0,2.73,2.66c2.68,0,4.09-1.86,4.09-4.29Z" transform="translate(-12.05 -18.54)"/><path class="cls-2" d="M533.89,137.69h2.71v9.92h.06a5.09,5.09,0,0,1,4.86-2.63c4.27,0,6.34,3.87,6.34,8.26s-1.87,8.83-6.31,8.83a5.73,5.73,0,0,1-5-2.69h-.06v2.31h-2.59Zm7.06,9.72c-2.94,0-4.35,3.11-4.35,6.15,0,2.72,1.27,6.08,4.32,6.08S545,156,545,153.46C545,150.52,543.88,147.41,541,147.41Z" transform="translate(-12.05 -18.54)"/><path class="cls-2" d="M551.55,137.69h2.7v24h-2.7Z" transform="translate(-12.05 -18.54)"/><path class="cls-2" d="M570.18,161a10.27,10.27,0,0,1-4.64,1.06c-5.21,0-7.6-3.52-7.6-8.83,0-4.83,2.74-8.26,6.88-8.26,4.9,0,6.48,4,6.48,9.22H560.82c0,3.23,2.28,5.44,4.84,5.44a8.19,8.19,0,0,0,4.52-1.63Zm-1.76-9c0-2.5-1.32-4.55-3.65-4.55-2.65,0-3.75,2.44-3.95,4.55Z" transform="translate(-12.05 -18.54)"/><path class="cls-2" d="M573.55,158.49a6.79,6.79,0,0,0,3.37,1.15c1.24,0,2.76-.58,2.76-2.34,0-3-6.36-2.72-6.36-7.29,0-3.4,2.28-5,5.18-5a10.3,10.3,0,0,1,3.37.64l-.23,2.63a7.23,7.23,0,0,0-2.85-.84c-1.38,0-2.59.64-2.59,2,0,3.33,6.36,2.37,6.36,7.58a4.82,4.82,0,0,1-5.12,5.09,7.69,7.69,0,0,1-4-.9Z" transform="translate(-12.05 -18.54)"/></svg>